<?xml version="1.0" encoding="utf-8"?>
<!-- Generator: Adobe Illustrator 27.5.0, SVG Export Plug-In . SVG Version: 6.00 Build 0)  -->
<svg version="1.1" xmlns="http://www.w3.org/2000/svg" xmlns:xlink="http://www.w3.org/1999/xlink" x="0px" y="0px"
	 viewBox="0 0 500 500" style="enable-background:new 0 0 500 500;" xml:space="preserve">
<g id="BACKGROUND">
	<rect x="-3.108" y="-1.036" style="fill:#FFFFFF;" width="500" height="500"/>
</g>
<g id="OBJECTS">
	<g>
		<path style="fill:#FCEFEB;" d="M168.849,89.189c-3.11,6.437-4.259,13.619-5.274,20.695c-0.191,1.331-0.371,2.733,0.123,3.983
			c0.398,1.009,1.2,1.81,2.078,2.447c5.643,4.098,13.863,1.801,19.234-2.647c5.371-4.447,8.997-10.637,13.911-15.585
			c4.559-4.59,10.58-8.727,11.526-15.127c0.347-2.35-0.149-4.932-1.799-6.641c-1.105-1.144-2.612-1.801-4.112-2.329
			C189.302,68.616,175.851,74.695,168.849,89.189z"/>
		<path style="fill:#FCEFEB;" d="M454.578,258.539c18.145,23.003,19.143,58.494,13.085,85.211
			c-2.517,11.097-6.183,22.118-12.653,31.478c-6.507,9.414-15.585,16.767-25.131,23.079c-23.587,15.596-50.858,25.581-78.939,28.903
			c-19.374,2.292-39.421,1.379-57.748-5.307c-18.327-6.686-34.822-19.549-43.516-37.014c-14.003-28.129-4.991-64.143,16.666-86.91
			c10.548-11.089,23.601-19.48,37.006-26.865c11.302-6.227,22.944-11.815,34.668-17.204c20.566-9.454,42.111-18.461,64.745-18.643
			c14.46-0.116,29.454,4.044,41.103,12.784C447.957,251.122,451.513,254.652,454.578,258.539z"/>
		<path style="fill:#FCEFEB;" d="M211.713,387.947c15.09-5.978,22.768-27.193,19.143-42.255
			c-3.539-14.71-15.607-25.72-27.891-34.552c-12.284-8.831-25.734-16.785-34.523-29.099c-19.934-27.93-20.864-83.224-68.099-81.108
			c-8.433,0.378-16.506,3.685-23.731,8.05c-15.434,9.324-27.717,23.764-34.445,40.492c-3.601,8.953-3.35,18.202-4.752,27.574
			c-1.586,10.602-4.544,21.383-4.844,32.114c-0.318,11.351,1.052,22.754,4.126,33.688c3.219,11.454,8.302,22.372,14.921,32.255
			c5.808,8.672,12.762,17.193,23.787,18.511c5.886,0.704,11.827-0.207,17.728-0.781c7.762-0.755,15.568-0.926,23.365-1.096
			c18.359-0.401,36.727-0.802,55.083-0.28c11.686,0.332,23.566,1.018,34.9-1.849C208.248,389.164,210.01,388.622,211.713,387.947z"
			/>
		<path style="fill:#FCEFEB;" d="M385.663,121.946c0.224-3.868,0.185-7.751-0.143-11.622c-1.399-16.548-8.307-32.834-20.322-44.3
			c-18.818-17.959-49.749-21.629-72.246-8.572c-14.543,8.44-24.979,22.534-38.879,31.995
			c-24.562,16.718-65.098,20.219-72.428,53.849c-2.648,12.148-3.351,25.079,0.752,36.815c5.884,16.831,21.061,29.114,37.654,35.639
			c57.982,22.801,128.397,0.563,155.861-57.13C381.381,147.133,384.931,134.615,385.663,121.946z"/>
		<g>
			<g>
				<g>
					<g>
						<path style="fill:#D57E7C;" d="M215.52,257.605c0.986,0.363,1.993,0.624,3.007,0.784c-0.01-0.093-0.028-0.184-0.028-0.28
							c0.001-1.477,1.194-2.692,2.666-2.713c1.472-0.021,2.664,1.16,2.664,2.637c0,0.104-0.019,0.203-0.031,0.305
							c1.033-0.181,2.047-0.461,3.029-0.836c-0.059-0.079-0.123-0.153-0.174-0.24c-0.735-1.269-0.298-2.911,0.977-3.668
							c1.275-0.757,2.905-0.342,3.64,0.928c0.058,0.099,0.095,0.204,0.139,0.308c0.81-0.669,1.564-1.422,2.247-2.256
							c-0.102-0.042-0.206-0.078-0.304-0.133c-1.274-0.721-1.71-2.35-0.974-3.641c0.736-1.29,2.366-1.752,3.641-1.031
							c0.112,0.063,0.209,0.142,0.307,0.218c0.39-1.015,0.672-2.051,0.851-3.093c-0.124,0.02-0.248,0.042-0.377,0.043
							c-1.472,0.021-2.665-1.16-2.664-2.637c0.001-1.478,1.194-2.692,2.666-2.713c0.14-0.002,0.275,0.017,0.409,0.036
							c-0.167-1.06-0.436-2.1-0.807-3.103c-0.105,0.086-0.21,0.172-0.33,0.243c-1.275,0.757-2.904,0.342-3.64-0.928
							c-0.735-1.269-0.298-2.911,0.977-3.668c0.129-0.076,0.264-0.133,0.398-0.186c-0.669-0.82-1.426-1.579-2.268-2.263
							c-0.05,0.131-0.101,0.262-0.173,0.389c-0.736,1.29-2.367,1.751-3.641,1.031c-1.274-0.721-1.71-2.351-0.974-3.641
							c0.075-0.132,0.165-0.249,0.258-0.363c-1.019-0.377-2.061-0.642-3.11-0.801c0.022,0.138,0.042,0.276,0.042,0.42
							c0,1.478-1.194,2.692-2.666,2.713c-1.472,0.021-2.664-1.16-2.664-2.638c0-0.145,0.021-0.285,0.043-0.424
							c-1.057,0.189-2.095,0.483-3.098,0.877c0.081,0.102,0.164,0.203,0.231,0.319c0.735,1.269,0.298,2.912-0.977,3.669
							c-1.275,0.757-2.905,0.342-3.64-0.928c-0.067-0.116-0.114-0.237-0.161-0.358c-0.813,0.681-1.566,1.447-2.249,2.295
							c0.111,0.044,0.222,0.084,0.329,0.144c1.274,0.721,1.71,2.351,0.974,3.641c-0.737,1.29-2.367,1.752-3.641,1.031
							c-0.104-0.059-0.193-0.132-0.286-0.202c-0.377,1.009-0.648,2.037-0.818,3.072c0.107-0.014,0.211-0.036,0.321-0.037
							c1.472-0.021,2.664,1.16,2.664,2.637c-0.001,1.477-1.194,2.692-2.666,2.713c-0.108,0.001-0.211-0.016-0.316-0.028
							c0.172,1.033,0.442,2.047,0.809,3.025c0.078-0.058,0.15-0.122,0.235-0.173c1.275-0.757,2.905-0.341,3.64,0.928
							c0.735,1.269,0.298,2.911-0.977,3.668c-0.087,0.052-0.18,0.085-0.27,0.126c0.652,0.79,1.387,1.522,2.201,2.184
							c0.037-0.083,0.065-0.169,0.112-0.25c0.736-1.29,2.367-1.752,3.641-1.031c1.274,0.721,1.71,2.351,0.974,3.641
							C215.64,257.452,215.577,257.525,215.52,257.605z M215.834,251.888c-5.193-2.937-6.97-9.579-3.968-14.836
							c3.001-5.257,9.644-7.138,14.837-4.201c5.193,2.937,6.97,9.579,3.968,14.837C227.67,252.944,221.027,254.825,215.834,251.888z
							"/>
					</g>
				</g>
				<g>
					<g>
						<g>
							<path style="fill:#4764A8;" d="M242.242,291.121c1.5,0.61,3.037,1.063,4.591,1.36c-0.01-0.144-0.034-0.284-0.029-0.432
								c0.075-2.277,1.974-4.089,4.241-4.047c2.267,0.042,4.044,1.922,3.969,4.199c-0.005,0.161-0.04,0.313-0.062,0.468
								c1.599-0.227,3.175-0.607,4.706-1.136c-0.087-0.125-0.182-0.242-0.256-0.379c-1.069-1.993-0.313-4.502,1.688-5.604
								c2.001-1.102,4.489-0.38,5.558,1.613c0.084,0.156,0.137,0.32,0.198,0.482c1.281-0.99,2.479-2.113,3.572-3.363
								c-0.155-0.069-0.313-0.13-0.461-0.22c-1.926-1.175-2.516-3.709-1.317-5.66c1.199-1.951,3.731-2.58,5.657-1.405
								c0.169,0.103,0.314,0.229,0.462,0.351c0.651-1.545,1.138-3.127,1.465-4.724c-0.192,0.024-0.383,0.052-0.582,0.048
								c-2.267-0.042-4.044-1.922-3.969-4.199c0.075-2.277,1.974-4.089,4.241-4.047c0.216,0.004,0.422,0.04,0.628,0.075
								c-0.203-1.642-0.566-3.258-1.087-4.823c-0.166,0.127-0.332,0.254-0.52,0.358c-2.001,1.102-4.489,0.38-5.558-1.613
								c-1.069-1.993-0.313-4.502,1.688-5.604c0.202-0.111,0.412-0.191,0.622-0.266c-0.989-1.297-2.116-2.505-3.378-3.602
								c-0.083,0.2-0.169,0.399-0.287,0.59c-1.199,1.951-3.731,2.58-5.657,1.405c-1.926-1.175-2.516-3.709-1.317-5.66
								c0.122-0.199,0.267-0.375,0.415-0.546c-1.55-0.632-3.14-1.093-4.747-1.392c0.026,0.213,0.051,0.428,0.044,0.65
								c-0.075,2.277-1.974,4.089-4.241,4.047c-2.267-0.042-4.044-1.922-3.969-4.199c0.007-0.224,0.046-0.438,0.087-0.651
								c-1.637,0.238-3.25,0.639-4.814,1.195c0.12,0.161,0.242,0.321,0.34,0.504c1.069,1.993,0.313,4.502-1.688,5.604
								c-2.001,1.102-4.489,0.38-5.558-1.613c-0.097-0.182-0.163-0.372-0.231-0.56c-1.285,1.008-2.484,2.151-3.577,3.424
								c0.168,0.073,0.338,0.14,0.498,0.238c1.926,1.175,2.515,3.709,1.317,5.66c-1.199,1.951-3.732,2.58-5.657,1.405
								c-0.157-0.096-0.291-0.214-0.43-0.326c-0.63,1.536-1.1,3.107-1.413,4.692c0.165-0.017,0.327-0.044,0.497-0.041
								c2.267,0.042,4.044,1.922,3.969,4.199c-0.075,2.277-1.974,4.089-4.241,4.047c-0.167-0.003-0.324-0.036-0.485-0.059
								c0.212,1.602,0.578,3.177,1.093,4.703c0.123-0.086,0.236-0.181,0.371-0.255c2.001-1.102,4.489-0.38,5.558,1.613
								c1.069,1.993,0.313,4.502-1.688,5.604c-0.137,0.075-0.281,0.122-0.422,0.18c0.964,1.251,2.06,2.416,3.279,3.477
								c0.061-0.127,0.109-0.257,0.185-0.38c1.198-1.951,3.731-2.58,5.657-1.405c1.926,1.175,2.515,3.709,1.317,5.66
								C242.434,290.892,242.333,291.002,242.242,291.121z M243.011,282.328c-7.849-4.788-10.251-15.115-5.367-23.065
								c4.884-7.95,15.206-10.514,23.055-5.725c7.848,4.788,10.251,15.115,5.367,23.065
								C261.181,284.552,250.859,287.116,243.011,282.328z"/>
						</g>
						<path style="fill:#4764A8;" d="M265.371,254.307c-7.371-7.381-19.438-7.276-26.899,0.233
							c-7.46,7.509-7.533,19.623-0.161,27.004c7.371,7.381,19.438,7.278,26.898-0.231
							C272.669,273.803,272.742,261.688,265.371,254.307z M260.822,276.919c-5.012,5.045-13.118,5.115-18.071,0.156
							c-4.952-4.959-4.904-13.097,0.109-18.142c5.012-5.045,13.119-5.116,18.071-0.157
							C265.883,263.735,265.834,271.874,260.822,276.919z"/>
					</g>
				</g>
				<path style="fill:#D57E7C;" d="M215.637,252.233c5.381,3.043,12.265,1.094,15.375-4.353c3.11-5.447,1.269-12.331-4.112-15.374
					c-5.381-3.043-12.264-1.094-15.375,4.353C208.415,242.307,210.256,249.19,215.637,252.233z M213.9,238.203
					c2.352-4.119,7.557-5.593,11.626-3.292c4.069,2.301,5.461,7.506,3.109,11.625c-2.352,4.119-7.557,5.593-11.626,3.292
					C212.941,247.527,211.549,242.322,213.9,238.203z"/>
			</g>
			<path style="fill:none;stroke:#2D2D2D;stroke-width:0.5;stroke-linecap:round;stroke-miterlimit:10;" d="M263.197,279.298
				c-6.338,6.379-16.588,6.467-22.85,0.197c-6.262-6.27-6.2-16.561,0.137-22.94c6.338-6.379,16.589-6.468,22.85-0.198
				C269.597,262.627,269.535,272.919,263.197,279.298z"/>
			<path style="fill:none;stroke:#2D2D2D;stroke-width:0.5;stroke-linecap:round;stroke-miterlimit:10;" d="M215.972,251.645
				c5.061,2.862,11.534,1.029,14.459-4.094c2.925-5.123,1.193-11.596-3.867-14.458c-5.06-2.862-11.534-1.029-14.459,4.094
				C209.18,242.31,210.912,248.783,215.972,251.645z"/>
		</g>
		<g>
			<g>
				<g>
					<path style="fill:#D57E7C;" d="M312.254,143.827c-0.258,0.099,1.202,5.704,1.337,6.24c0.521,2.073,0.992,4.158,1.414,6.253
						c0.838,4.158,1.494,8.384,2.226,12.574c0.408,2.333,0.805,4.668,1.193,7.004c0.01,0.063-0.106,0.13-0.323,0.2h-60.811
						c-1.118-0.872-2.099-1.945-2.889-3.274c-1.265-2.128-1.898-4.564-2.461-6.975c-3.296-14.118-4.707-28.664-4.367-43.158
						c0.08-3.401,0.259-6.827,1.086-10.128c1.204-4.807,3.727-9.119,6.364-13.263c4.141-6.508,13.223-7.909,20.359-8.722
						c8.165-0.931,16.549-0.018,24.292,2.752c5.411,1.936,10.487,4.771,15.007,8.317c3.533,2.772,6.726,5.977,9.473,9.527
						c2.643,3.416,4.81,7.015,6.466,10.988c0.44,1.056,3.823,7.807,2.516,8.746C326.461,135.682,319.901,140.895,312.254,143.827z"
						/>
					<path style="fill:#FFFFFF;stroke:#000000;stroke-width:0.5;stroke-miterlimit:10;" d="M331.476,127.186
						c-7.257,4.51-15.206,9.037-23.111,12.326c1.507,5.372,4.879,14.178,6.97,19.359c-8.509,1.837-16.904,5.457-24.49,8.459
						c-1.954,0.773-4.648,2.543-6.714,2.712c-2.429,0.2-5.628-1.082-8.093-1.383c-1.409-0.172-2.836-0.306-4.244-0.129
						c-2.671,0.335-5.104,1.781-7.073,3.616c-1.277,1.19-2.375,2.548-3.416,3.953h77.027c1.309-0.635,2.456-1.563,3.317-2.816
						c2.817-4.096,1.619-9.627,0.228-14.4C339.244,149.842,334.701,136.027,331.476,127.186z"/>
					<path style="fill:#FFFFFF;stroke:#000000;stroke-width:0.5;stroke-miterlimit:10;" d="M262.106,156.327
						c-0.275-5.486-0.766-10.961-1.47-16.409c-0.814-6.29-1.965-12.694-5.132-18.189c-3.163-5.488-11.854-8.898-15.692-1.891
						c-1.349,2.464-1.282,5.429-1.166,8.236c0.371,9.023,0.871,18.041,1.499,27.05c0.501,7.181-5.195,6.776-10.634,7.56
						c-1.874,0.27-3.824,0.569-5.378,1.651c-1.554,1.081-2.565,3.197-1.774,4.918c0.595,1.295,1.983,2,3.272,2.608
						c0.366,0.173,0.734,0.346,1.103,0.518h30.456c0.278-0.199,0.548-0.41,0.806-0.638c1.916-1.688,2.998-3.94,3.58-6.418
						C262.25,162.453,262.254,159.281,262.106,156.327z"/>
					<path style="fill:#D57E7C;" d="M267.132,133.65c0.21-0.072,0.027-2.519,0.165-2.692c0.186-0.232,0.172-0.561,0.148-0.858
						c-0.7-8.773-0.495-17.654-1.373-26.488c-0.264-2.716-0.574-5.47-1.606-7.996c-5.135-12.568-20.676-1.674-24.548,6.425
						c-4.595,9.612-3.403,28.623-3.58,33.3C241.978,136.357,262.053,135.381,267.132,133.65z"/>
					<path style="fill:#FFFFFF;stroke:#000000;stroke-width:0.5;stroke-miterlimit:10;" d="M285.105,95.996
						c0.043,0.025,0.087,0.049,0.131,0.072c0.116,0.061,0.241,0.119,0.318,0.225c0.081,0.113,0.094,0.259,0.103,0.398
						c0.286,4.111-1.319,7.724-4.356,10.537c-2.921,2.706-7.029,4.157-10.978,3.643c-3.87-0.504-4.531-3.451-6.388-6.361
						c-4.48,1.538-9.097-2.6-11.48-5.948c-4.59-6.446-6.111-14.532-5.414-22.32c0.171-1.914,0.466-3.916,1.62-5.452
						c0.806-1.073,1.96-1.82,3.09-2.543c5.264-3.368,10.871-3.552,16.623-0.894c3.66,1.691,6.51,4.722,8.712,8.036
						c0.99,1.49,2.26,3.254,2.602,5.002c0.495,2.523,0.369,5.121,0.989,7.651C281.29,90.539,282.683,94.611,285.105,95.996z"/>
					<path d="M279.404,65.743c-1.478-1.02-3.423-1.471-4.987-2.444c-2.889-1.797-4.568-5.443-7.842-6.368
						c-2.596-0.734-5.382,0.561-7.366,2.389c-1.488,1.371-2.764,3.101-4.655,3.82c-1.269,0.483-2.673,0.448-3.993,0.767
						c-2.803,0.679-5.106,3.092-5.652,5.924c-0.222,1.149-0.177,2.351-0.536,3.465c-0.307,0.953-0.891,1.787-1.358,2.672
						c-0.467,0.885-0.828,1.893-0.632,2.874c0.286,1.432,2.004,2.079,3.333,1.936c0.36-0.039,0.695-0.193,1.023-0.345
						c2.907-1.349,5.814-2.699,8.72-4.048c0.766-0.356,1.557-0.718,2.4-0.76c3.77-0.188,4.505,4.009,5.336,6.687
						c0.329,1.062,0.649,2.174,1.395,2.998c0.746,0.824,2.068,1.25,2.993,0.633c0.311-0.208,0.556-0.515,0.897-0.668
						c1.643-0.736,2.91,1.866,4.103,2.372c0.737,0.313,1.591,0.049,2.385,0.307c0.979,0.319,1.789,1.033,2.706,1.483
						c2.025,0.994,4.614,0.766,6.387-0.628c1.773-1.394,2.604-3.909,1.938-6.064c-0.721-2.333-2.918-3.955-3.757-6.248
						c-1.136-3.103,0.357-6.998-1.639-9.632C280.263,66.418,279.855,66.054,279.404,65.743z"/>
					<path style="fill:#FFFFFF;stroke:#000000;stroke-width:0.5;stroke-miterlimit:10;" d="M269.45,88.308
						c-0.559-0.799-0.717-1.837-0.553-2.799c0.164-0.962,0.628-1.852,1.213-2.633c0.412-0.549,0.893-1.057,1.48-1.413
						c0.938-0.569,2.109-0.708,3.176-0.452c1.066,0.257,2.025,0.893,2.74,1.724c1.547,1.8,2.373,5.443,1.661,7.719
						c-0.371,1.187-1.325,2.256-2.552,2.454"/>
					<path d="M309.703,142.947c-0.857,0.185-1.726,0.278-2.603,0.238c-0.062-0.003-0.127-0.008-0.176-0.044
						c-0.068-0.049-0.087-0.14-0.101-0.223c-0.211-1.225-0.62-2.378-1.067-3.532c-0.122-0.315-0.254-0.624-0.379-0.932
						c-0.342-0.695-0.655-1.404-0.925-2.129c-0.09,0.396-0.121,0.811-0.119,1.22c0.001,0.445,0.023,0.911-0.174,1.31
						c-0.127,0.258-0.336,0.464-0.521,0.684c-0.473,0.561-1.227,1.702-1.149,2.476c0.094,0.929,1.294,1.519,1.23,2.451
						c-0.064,0.922-0.388,1.696,0.359,2.357c0.72,0.63,1.84,1.017,2.764,0.866c0.407-0.067,0.795-0.219,1.201-0.295
						c0.969-0.182,2.055,0.061,2.889-0.464C310.912,146.941,309.114,143.414,309.703,142.947z"/>
					<path d="M262.823,104.532c2.484-0.562,5.218-1.546,7.054-3.284c0.061,1.375,0.106,2.75,0.152,4.126
						C267.589,105.334,265.154,105.175,262.823,104.532z"/>
					<path d="M259.913,134.929c0,0-0.622-5.952-1.185-8.29c-0.148-0.616-0.084-2.471-0.761-2.524
						c-0.251,1.167-0.217,2.475-0.299,3.673c-0.038,0.558-0.086,1.145-0.396,1.611c-0.531,0.8-1.648,0.99-2.301,1.695
						c-0.556,0.6-0.695,1.484-1.19,2.135c-0.522,0.688-2.437,1.696-2.742,2.452C252.692,135.643,259.084,135.114,259.913,134.929z"
						/>
				</g>
				<g>
					<path d="M206.89,176.197h68.333c0.899,0,1.627-0.728,1.627-1.627l0,0c0-0.898-0.728-1.627-1.627-1.627H206.89
						c-0.898,0-1.627,0.729-1.627,1.627l0,0C205.263,175.469,205.991,176.197,206.89,176.197z"/>
					<path d="M205.039,176.197h61.174l-5.323-35.152c-0.185-1.22-1.221-2.131-2.424-2.131h-56.325c-1.454,0-2.548,1.311-2.325,2.785
						L205.039,176.197z"/>
					<path style="fill:#FFFFFF;stroke:#000000;stroke-width:0.5;stroke-miterlimit:10;" d="M227.904,155.046
						c0,1.184,0.959,2.143,2.143,2.143s2.143-0.959,2.143-2.143s-0.959-2.143-2.143-2.143S227.904,153.863,227.904,155.046z"/>
				</g>
				<path style="fill:#D57E7C;" d="M305.731,137.772c0.761,1.411,1.521,2.822,2.282,4.232c0.198,0.368,0.425,0.763,0.811,0.924
					c0.411,0.172,0.878,0.029,1.299-0.117c8.658-3.009,16.946-7.08,24.618-12.094c-1.481-3.19-2.962-6.38-4.443-9.57
					c-0.679-1.463-1.457-3.031-2.898-3.755"/>
				<path style="fill:#FFFFFF;stroke:#000000;stroke-width:0.5;stroke-miterlimit:10;" d="M315.296,158.838
					c1.651-0.103,3.302-0.206,4.954-0.309"/>
				
					<line style="fill:none;stroke:#222221;stroke-width:0.5;stroke-miterlimit:10;" x1="196.428" y1="176.158" x2="380.987" y2="176.158"/>
				<g>
					<path style="fill:#A8DCA4;" d="M370.542,149.939c2.992-3.618,5.414-7.737,6.127-12.337c0.751-4.846-0.478-9.833-2.599-14.255
						c-2.2-4.587-5.445-10.472-9.758-13.329c-4.142,2.855-6.997,8.422-7.771,13.337c-0.892,5.672,1.23,10.848,3.94,15.716
						c0.953,1.712,9.209,11.919,7.901,13.304C369.123,151.59,369.848,150.778,370.542,149.939z"/>
					<path style="fill:#A8DCA4;" d="M360.384,143.419c-2.895-2.336-6.568-3.472-10.207-4.24s-7.362-1.224-10.879-2.434
						c1.23,4.47,0.812,9.489,3.249,13.433c2.927,4.737,9.54,6.395,14.765,4.467c2.445-0.902,6.773-1.197,7.411-3.39
						C365.463,148.704,362.11,144.812,360.384,143.419z"/>
					<path style="fill:none;stroke:#262547;stroke-width:0.5;stroke-miterlimit:10;" d="M348.401,144.764
						c3.129,0.469,6.281,0.968,9.24,2.087c2.959,1.119,5.748,2.916,7.537,5.525c3.243,4.73,2.633,11.006,1.893,16.693"/>
					<path style="fill:none;stroke:#262547;stroke-width:0.5;stroke-miterlimit:10;" d="M367.789,131.314
						c3.386,12.095-0.465,25.004,0.577,37.521"/>
					<g>
						<polygon style="fill:#4764A8;" points="378.161,159.42 354.96,158.926 357.323,176.204 375.031,176.198 						"/>
					</g>
				</g>
				<path style="fill:none;stroke:#262547;stroke-width:0.5;stroke-miterlimit:10;" d="M253.647,96.493
					c0.265,1.17,1.406,1.996,2.59,2.189c2.169,0.354,4.458-1.348,4.742-3.528L253.647,96.493z"/>
				<path style="fill:none;stroke:#000000;stroke-width:0.5;stroke-miterlimit:10;" d="M259.988,135.455
					c-0.474-3.043-1.222-7.776-1.766-10.808"/>
				<path style="fill:none;stroke:#262547;stroke-width:0.5;stroke-miterlimit:10;" d="M275.038,83.639
					c-0.963-0.224-2.015-0.032-2.836,0.517c-0.822,0.55-1.401,1.449-1.561,2.424"/>
				<path style="fill:none;stroke:#000000;stroke-width:0.5;stroke-miterlimit:10;" d="M286.901,97.582
					c0.118,1.6-0.106,3.225-0.655,4.732"/>
				<path style="fill:none;stroke:#000000;stroke-width:0.5;stroke-miterlimit:10;" d="M285.56,104.289
					c-0.378,1.505-1.29,2.833-2.387,3.93c-1.097,1.098-2.379,1.988-3.655,2.872c-0.702,0.486-1.445,0.989-2.296,1.065"/>
				<path style="fill:none;stroke:#000000;stroke-width:0.5;stroke-miterlimit:10;" d="M322.828,113.692
					c2.554,3.849,4.891,7.842,6.996,11.954"/>
				<path style="fill:none;stroke:#000000;stroke-width:0.5;stroke-miterlimit:10;" d="M304.858,137.97
					c-1.21-3.591-2.399-7.188-3.566-10.793"/>
			</g>
			<path style="fill:none;stroke:#000000;stroke-width:0.5;stroke-miterlimit:10;" d="M330.375,127.626
				c0.183,0.55,0.367,1.101,0.55,1.651"/>
			<path style="fill:none;stroke:#262547;stroke-width:0.5;stroke-miterlimit:10;" d="M340.212,166.688
				c0.248,1.717-0.17,3.522-1.148,4.955"/>
			<path style="fill:none;stroke:#262547;stroke-width:0.5;stroke-miterlimit:10;" d="M339.503,162.182
				c0.009,0.811,0.087,1.622,0.234,2.42"/>
		</g>
		<g>
			<path style="fill:#A8DCA4;stroke:#000000;stroke-width:0.5;stroke-miterlimit:10;" d="M359.68,53.636l-10.82,14.851l-7.465-8.326
				c-0.868,0.665-1.696,1.375-2.497,2.114l10.225,11.404l13.101-17.98C361.382,55.003,360.535,54.314,359.68,53.636z"/>
		</g>
		<g>
			<path style="fill:#A8DCA4;stroke:#000000;stroke-width:0.5;stroke-miterlimit:10;" d="M362.326,75.259l-10.82,14.851
				l-7.465-8.326c-0.868,0.665-1.696,1.375-2.497,2.114l10.225,11.404l13.101-17.98C364.028,76.627,363.181,75.937,362.326,75.259z"
				/>
		</g>
		<g>
			<g>
				<path style="fill:none;stroke:#000000;stroke-width:0.5;stroke-miterlimit:10;" d="M412.985,154.647
					c-8.358,0-15.133-7.557-15.133-7.557s6.775-7.557,15.133-7.557c8.358,0,15.133,7.557,15.133,7.557
					S421.343,154.647,412.985,154.647z"/>
				<path d="M412.931,154.666c-2.915,0-5.278-3.387-5.278-7.566c0-4.179,2.363-7.566,5.278-7.566s5.278,3.387,5.278,7.566
					C418.209,151.278,415.846,154.666,412.931,154.666z"/>
			</g>
		</g>
		<g>
			<g>
				<path style="fill:none;stroke:#000000;stroke-width:0.5;stroke-miterlimit:10;" d="M192.433,287.619
					c-9.525,0-17.246-8.612-17.246-8.612s7.721-8.612,17.246-8.612c9.524,0,17.246,8.612,17.246,8.612
					S201.957,287.619,192.433,287.619z"/>
				<path d="M192.371,287.641c-3.322,0-6.015-3.861-6.015-8.623s2.693-8.623,6.015-8.623s6.015,3.861,6.015,8.623
					S195.693,287.641,192.371,287.641z"/>
			</g>
		</g>
		<g>
			<polygon style="fill:#D57E7C;" points="439.563,207.796 393.9,207.71 393.331,183.365 438.993,183.45 			"/>
			<polyline style="fill:none;stroke:#1D2038;stroke-width:0.5;stroke-miterlimit:10;" points="438.73,183.713 416.041,195.211 
				393.142,183.713 			"/>
			<path style="fill:none;stroke:#1D2038;stroke-width:0.5;stroke-miterlimit:10;" d="M434.603,199.61
				c-2.985,0.052-5.97,0.104-8.954,0.156"/>
			<path style="fill:none;stroke:#1D2038;stroke-width:0.5;stroke-miterlimit:10;" d="M434.721,201.908
				c-3.073,0.134-6.146,0.268-9.219,0.403"/>
		</g>
		<g>
			<polygon style="fill:#8CC9DE;" points="146.764,166.004 103.328,165.923 102.786,142.764 146.222,142.846 			"/>
			<polyline style="fill:none;stroke:#1D2038;stroke-width:0.5;stroke-miterlimit:10;" points="146.222,142.846 124.389,154.033 
				102.889,143.154 			"/>
			
				<line style="fill:none;stroke:#1D2038;stroke-width:0.5;stroke-miterlimit:10;" x1="142.045" y1="158.218" x2="133.528" y2="158.366"/>
			
				<line style="fill:none;stroke:#1D2038;stroke-width:0.5;stroke-miterlimit:10;" x1="142.158" y1="160.404" x2="133.8" y2="160.473"/>
		</g>
		<g>
			<g>
				<path style="fill:#FFFFFF;stroke:#222221;stroke-width:0.5;stroke-miterlimit:10;" d="M129.919,306.153
					c-0.535-1.932-1.107-3.906-2.295-5.52c-3.4-4.618-11.169-2.451-14.052,1.696c-7.248,10.425-1.559,26.594,2.218,37.243
					c1.088,3.066,2.657,6.369,5.692,7.539c4.618,1.78,8.95-2.311,10.435-6.324c1.911-5.169,2.162-11.029,1.705-16.467
					c-0.21-2.492-0.585-4.963-1.066-7.416C131.846,313.286,130.904,309.707,129.919,306.153z"/>
				
					<line style="fill:none;stroke:#222221;stroke-width:0.5;stroke-miterlimit:10;" x1="33.181" y1="383.028" x2="170.906" y2="383.028"/>
				<path style="fill:none;stroke:#222221;stroke-width:0.5;stroke-miterlimit:10;" d="M24.592,379.917
					c51.485,0.037,103.233,0.037,154.652,0"/>
				<path style="fill:#FFFFFF;stroke:#000000;stroke-width:0.5;stroke-miterlimit:10;" d="M113.836,288.732
					c0.065-0.351,0.121-0.703,0.172-1.054c0.511-3.507,0.989-7.892-2.828-9c-2.517-0.731-6.926-0.406-8.605-2.747
					c-0.539-0.751-0.692-1.703-0.83-2.617c-0.197-1.305-0.394-2.611-0.591-3.916c7.318,1.256,10.37-5.294,11.293-11.422
					c0.943-6.251,0.746-14.054-4.761-18.242c-3.51-2.669-8.426-3.307-12.551-1.748c-4.125,1.56-7.357,5.223-8.525,9.475
					c-0.863,3.145,0.161,4.292,0.347,7.537c0.211,3.676-0.117,10.029,0.088,13.705c0.138,2.472-0.073,5.353-1.413,7.512
					c-0.609,0.981-1.365,1.818-2.405,2.353c-0.753,0.388-2.723,0.179-3.192,0.694c-2.679,2.945-5.185,6.064-8.096,8.769
					c6.866,2.879,14.046,4.941,21.382,6.199c5.148,0.883,15.541,3.929,19.093-1.547C113.183,291.5,113.578,290.127,113.836,288.732z
					"/>
				<path style="fill:#D57E7C;" d="M53.01,306.056c0.734-9.072,4.796-18.355,13.057-22.891c3.043-1.671,6.378-2.667,9.74-3.467
					c1.729-0.411,3.47-0.77,5.203-1.163c1.943-0.44,2.334,0.018,3.652,1.481c2.729,3.028,7.045,4.372,11.099,3.953
					c2.57-0.266,5.033-1.19,7.238-2.518c1.619-0.976,2.518-1.834,3.246-3.67c0.057-0.142,0.124-0.299,0.263-0.363
					c0.092-0.043,0.199-0.036,0.3-0.027c7.539,0.618,14.486,2.745,19.044,9.151c3.944,5.543,5.455,12.426,6.487,19.15
					c0.636,4.144,1.126,8.31,1.467,12.488c-5.153,0.39-10.325,0.517-15.491,0.378c-0.228,7.649-0.949,15.275-1.634,22.924
					c-0.471,5.257-1.279,10.423-2.451,15.537c-11.916,3.968-25.513,3.001-38.291,1.849c-3.644-0.329-7.424-0.699-10.574-2.558
					c-8.865-5.23-9.242-20.684-10.508-29.679C53.879,319.673,52.435,313.162,53.01,306.056z"/>
				<path d="M144.416,396.397c-0.155-0.228-0.317-0.451-0.486-0.667c-3.086-3.957-8.418-6.538-12.774-8.864
					c-4.806-2.566-10.195-4.677-15.738-4.357c-4.998,0.288-11.941,3.68-12.976,8.971c-0.117,0.597-0.167,1.236,0.072,1.796
					c0.595,1.391,2.474,1.515,3.986,1.529c6.453,0.057,12.663,2.043,18.683,4.186c3.102,1.104,6.185,2.267,9.322,3.272
					c2.804,0.899,9.615,4.84,11.578,0.749C147.157,400.777,145.66,398.225,144.416,396.397z"/>
				<path style="fill:#4764A8;" d="M172.401,343.227c-2.608-2.888-6.322-4.757-10.131-5.471c-5.345-1.001-10.866-0.031-16.108,1.413
					c-11.108,3.059-21.524,8.215-32.691,11.084c-4.951,1.272-8.18,0.8-13.019,0.41c-6.135-0.495-12.434,0.109-18.608-0.256
					c-5.771-0.341-12.015-0.788-17.408,0.801c-0.712-0.468-1.422-0.937-2.13-1.401c-6.034-3.958-12.044-7.9-19.61-6.458
					c-5.949,1.133-11.685,4.149-15.37,9.046c-3.915,5.202-2.739,11.995,0.768,17.182c2.904,4.294,7.196,7.454,11.641,10.121
					c15.334,9.199,32.083,14.836,50.179,13.58c2.422-0.168,5.278-0.195,7.022,1.75c0.656,0.731,1.036,4.74,2.493,4.567
					c1.792-0.212,5.243-0.714,6.936-1.326c9.144-3.303,18.287-6.606,27.431-9.909c8.034-2.902,16.126-5.832,23.445-10.235
					c6.33-3.808,12.064-8.96,15.425-15.633c2.423-4.811,4.413-11.151,1.882-16.149C173.971,345.2,173.244,344.161,172.401,343.227z"
					/>
				<path style="fill:none;stroke:#000000;stroke-width:0.5;stroke-miterlimit:10;" d="M58.91,357.056
					c5.14,2.569,10.522,4.212,15.446,7.256c4.923,3.043,9.579,6.587,14.924,8.887c3.467,1.492,8.5,2.074,11.825,3.725"/>
				<path d="M96.803,394.298c-0.481-1.112-0.962-2.223-1.443-3.335c-0.954-2.206-1.909-4.412-2.864-6.618
					c-2.15,1.077-4.218,1.94-6.709,1.735c-1.323-0.109-2.625-0.486-3.952-0.464c-2.64,0.045-3.78,2.1-4.879,4.182
					c-1.941,3.681-5.435,6.362-8.271,9.317c-3.552,3.702-5.611,7.183-5.04,12.477c0.201,1.867,0.956,4.009,2.763,4.518
					c1.666,0.47,3.31-0.697,4.65-1.794c3.633-2.973,7.266-5.946,10.9-8.919c1.657-1.356,3.342-3.163,5.227-4.181
					c1.549-0.836,3.391-1.361,4.861-2.341c0.937-0.395,1.896-0.737,2.871-1.023c0.63-0.185,2.264-0.249,2.718-0.692
					c0.562-0.548-0.559-2.23-0.814-2.819C96.816,394.328,96.81,394.313,96.803,394.298z"/>
				<path style="fill:#FFFFFF;stroke:#000000;stroke-width:0.5;stroke-miterlimit:10;" d="M106.219,359.472
					c0.662-0.335,1.167-0.93,1.561-2.058c0.659-1.888,0.272-4.125-0.79-5.789c-1.37-2.147-3.893-3.805-6.378-4.327
					c-2.565-0.539-5.053-1.455-7.665-1.983c-1.879-0.38-3.727-0.898-5.573-1.415c-3.902-1.093-7.805-2.186-11.707-3.28
					c-0.948-0.266-1.945-0.47-2.871-0.804c-0.882-0.318-0.839-0.234-0.914-1.084c-0.085-0.951,0.244-1.977,0.311-2.929
					c0.096-1.387,0.188-2.775,0.278-4.162c0.173-2.698,0.334-5.397,0.481-8.097c0.288-5.278-0.006-10.442-0.942-15.663
					c-1.571-8.758-12.054-13.787-17.979-5.426c-4.129,5.827-4.975,13.727-5.265,20.66c-0.318,7.613,0.125,15.253,3.05,22.401
					c7.294,17.825,35.941,15.945,51.48,14.497C104.519,359.899,105.47,359.851,106.219,359.472z"/>
				<path d="M101.591,234.823c6.465,0.591,12.167,6.36,13.794,12.449c-0.385,0.159-0.771,0.319-1.156,0.478
					c-0.532-1.224-1.207-2.385-2.007-3.452c0.038,1.196,0.231,2.388,0.573,3.535c-0.749,0.256-1.987-0.029-2.797,0.014
					c-1.205,0.063-2.409,0.164-3.608,0.302c-2.248,0.258-4.482,0.647-6.685,1.163c-0.202,0.047-0.428,0.092-0.605-0.016
					c-0.112-0.069-0.183-0.188-0.248-0.302c-0.563-0.99-1.129-3.63-2.411-2.837c-0.602,0.372-0.835,3.119-0.815,3.824
					c0.049,1.757,0.523,2.739-1.203,3.872c-1.367,0.897-2.586,1.971-3.128,3.525c-0.576,1.65-0.837,3.458-1.861,4.926
					c-0.262,0.375-0.562,0.722-0.861,1.068c-0.55,0.637-1.1,1.273-1.65,1.91c-0.338-0.255-0.504-0.673-0.651-1.07
					c-1.741-4.684-6.547-16.016-1.532-20.018c-2.343,1.87-6.245,1.249-7.893-1.255c-1.648-2.504-0.673-6.333,1.971-7.745
					c-2.698-1.355-3.475-5.452-1.46-7.7c2.014-2.249,6.172-1.925,7.814,0.608c2.013-2.59,5.949-3.629,8.799-2.006
					c3.777,2.152,3.177,6.238,1.083,9.11C97.244,234.913,99.36,234.619,101.591,234.823z"/>
				<path style="fill:none;stroke:#000000;stroke-width:0.5;stroke-miterlimit:10;" d="M147.491,348.147
					c-10.294,4.655-18.578,12.743-27.95,19.051c-8.753,5.891-18.444,10.219-28.08,14.517c0.503,1.105,0.708,2.194,1.211,3.299"/>
				<path style="fill:none;stroke:#222221;stroke-width:0.5;stroke-miterlimit:10;" d="M103.514,260.279
					c0.615,2.008,3.069,3.227,5.041,2.505"/>
				<g>
					<path style="fill:#FFFFFF;stroke:#000000;stroke-width:0.5;stroke-miterlimit:10;" d="M93.127,259.695
						c-3.794,0.949-6.157-3.05-5.004-5.657c1.605-3.629,6.695-3.027,7.626,0.788"/>
					<path style="fill:none;stroke:#222221;stroke-width:0.5;stroke-miterlimit:10;" d="M91.185,253.731
						c0.714-0.197,1.537-0.078,2.135,0.306c0.597,0.384,0.952,1.024,0.918,1.658"/>
				</g>
				<path style="fill:#D57E7C;" d="M75.198,300.132c-1.031,4.107-1.253,13.607-1.292,20.831c-2.69-0.236-5.366-0.615-8.017-1.138
					c-5.767-1.139-11.366-2.915-16.802-5.12c1.607-10.298,4.586-20.162,11.936-27.586"/>
				<g>
					<path d="M73.988,365.129h58.359c0.855,0,1.548-0.693,1.548-1.547l0,0c0-0.855-0.693-1.547-1.548-1.547H73.988
						c-0.854,0-1.547,0.693-1.547,1.547l0,0C72.441,364.436,73.134,365.129,73.988,365.129z"/>
					<path d="M82.646,363.03h51.076l10.609-26.199c0.345-0.853-0.282-1.784-1.203-1.784H94.852c-0.529,0-1.004,0.321-1.203,0.81
						L82.646,363.03z"/>
					<path style="fill:none;stroke:#FFFFFF;stroke-width:0.5;stroke-miterlimit:10;" d="M118.865,349.055
						c-0.543,1.419-2.375,2.57-4.091,2.57c-1.717,0-2.668-1.15-2.125-2.57c0.543-1.419,2.375-2.57,4.091-2.57
						S119.408,347.636,118.865,349.055z"/>
				</g>
				<path d="M101.54,269.26c-0.094,0.975-0.011,1.959,0.077,2.935c-0.064-0.018-0.129-0.032-0.192-0.051
					c-2.007-0.621-3.669-2.259-4.51-4.185C98.33,268.742,99.926,269.179,101.54,269.26z"/>
				<path style="fill:none;stroke:#D47172;stroke-miterlimit:10;" d="M88.669,403.122c-0.592-1.438-1.811-2.604-3.273-3.131
					c-0.377-0.136-0.854-0.209-1.13,0.082c-0.393,0.414-0.007,1.071,0.33,1.532c0.612,0.838,1.061,1.794,1.313,2.8
					c0.097,0.387,0.15,0.843-0.112,1.144c-0.274,0.315-0.787,0.303-1.153,0.103c-0.366-0.2-0.628-0.543-0.906-0.854
					c-0.683-0.762-1.523-1.382-2.453-1.809c-0.168-0.077-0.358-0.149-0.534-0.091c-0.51,0.17-0.187,0.928,0.137,1.357
					c0.659,0.872,0.981,1.992,0.885,3.081"/>
				<path style="fill:none;stroke:#D47172;stroke-miterlimit:10;" d="M119.605,398.365c0.161-0.929,0.371-1.943,1.107-2.532
					c0.736-0.589,2.143-0.304,2.211,0.637c0.028,0.38-0.165,0.737-0.242,1.11c-0.11,0.536,0.052,1.145,0.484,1.482
					c0.431,0.337,1.131,0.317,1.48-0.105c0.479-0.579,0.15-1.552,0.638-2.124c0.548-0.643,1.7-0.195,2.046,0.577
					c0.346,0.771,0.172,1.66,0.079,2.5c-0.093,0.84-0.052,1.804,0.576,2.369"/>
				<path d="M89.875,257.914c0,0.651,0.528,1.179,1.179,1.179s1.179-0.528,1.179-1.179s-0.528-1.179-1.179-1.179
					S89.875,257.263,89.875,257.914z"/>
				<path d="M49.081,317.239c0.083-0.488,0.14-0.979,0.168-1.474c0.055-0.347,0.122-0.691,0.211-1.031
					c0.363,0.291,0.754,0.546,1.177,0.739c0.461,0.21,0.947,0.358,1.432,0.505c1.444,0.437,2.887,0.875,4.331,1.312
					c0.564,0.171,1.103,0.357,1.614,0.656c-0.472-0.133-0.985-0.157-1.479-0.076c-0.683,0.112-1.342,0.362-2.031,0.43
					c-0.597,0.06-1.2-0.018-1.798,0.025c-1.251,0.09-2.58,0.676-3.705,0.195C49.025,318.094,49.049,317.666,49.081,317.239z"/>
				<path style="fill:#FFFFFF;stroke:#000000;stroke-width:0.5;stroke-miterlimit:10;" d="M52.82,344.091
					c0.633,2.143,1.794,4.127,3.352,5.729"/>
				<path style="fill:#FFFFFF;stroke:#000000;stroke-width:0.5;stroke-miterlimit:10;" d="M57.355,350.964
					c0.558,0.434,1.117,0.869,1.675,1.303"/>
				<path style="fill:#FFFFFF;stroke:#000000;stroke-width:0.5;stroke-miterlimit:10;" d="M56.709,348.537
					c0.315,0.306,0.629,0.611,0.944,0.917"/>
				<path style="fill:none;stroke:#000000;stroke-width:0.5;stroke-miterlimit:10;" d="M51.777,313.82
					c1.489,0.559,2.978,1.117,4.468,1.675"/>
				<path style="fill:none;stroke:#000000;stroke-width:0.5;stroke-miterlimit:10;" d="M55.707,298.228
					c-0.798,1.811-1.445,3.688-1.931,5.606"/>
				<path style="fill:none;stroke:#000000;stroke-width:0.5;stroke-miterlimit:10;" d="M53.466,304.95
					c-0.13,0.578-0.26,1.155-0.39,1.733"/>
				<path style="fill:none;stroke:#000000;stroke-width:0.5;stroke-miterlimit:10;" d="M52.711,308.237
					c-0.083,0.393-0.166,0.786-0.249,1.179"/>
				<path style="fill:none;stroke:#000000;stroke-width:0.5;stroke-miterlimit:10;" d="M88.449,266.849
					c-0.011,1.762-0.116,3.523-0.313,5.274"/>
				<path style="fill:none;stroke:#000000;stroke-width:0.5;stroke-miterlimit:10;" d="M87.961,273.49
					c-0.105,0.69-0.255,1.374-0.447,2.045"/>
				<path style="fill:none;stroke:#000000;stroke-width:0.5;stroke-miterlimit:10;" d="M118.307,318.749
					c-0.178-2.764-0.357-5.529-0.536-8.293"/>
				<path style="fill:none;stroke:#000000;stroke-width:0.5;stroke-miterlimit:10;" d="M117.466,308.64
					c-0.194-1.045-0.273-2.112-0.237-3.174"/>
				<path style="fill:none;stroke:#000000;stroke-width:0.5;stroke-miterlimit:10;" d="M73.168,321.083
					c0.295-0.076,0.59-0.153,0.884-0.229c0.93-1.399,1.109-3.148,1.307-4.817c0.524-4.422,1.363-8.806,2.5-13.111"/>
			</g>
			<g>
				<g>
					<path style="fill:#EDBF34;" d="M152.781,367.366c0.797-0.094,1.637-0.062,2.352-0.11c5.061-0.342,10.145,0.206,15.197-0.26
						c5.114-0.472,10.052-2.08,15.116-2.935c4.62-0.78,9.408-0.924,13.955,0.207c4.547,1.131,8.847,3.617,11.629,7.387
						c3.13,4.242,3.723,10.007,1.432,14.74c-2.371,4.898-7.741,6.769-12.857,7.493c-5.179,0.733-10.389,0.574-15.603,0.574
						c-4.466,0-8.932,0.576-13.398,0.24c-6.446-0.486-12.415,1.132-17.414-4.763c-3.544-4.179-5.465-10.39-4.547-16.258
						c0.269-1.721,0.79-4.478,2.256-5.641C151.418,367.626,152.083,367.448,152.781,367.366z"/>
					<g>
						<path style="fill:#EDBF34;" d="M173.582,368.805l-0.237-12.669l-6.163,3.856c-2.173-1.151-4.754-1.82-7.525-1.82
							c-2.777,0-5.363,0.672-7.539,1.827l-9.762-0.401l3.712,3.892l-0.385,6.232c0,6.378,6.541,9.838,14.258,9.838
							c7.717,0,13.688-3.46,13.688-9.838C173.63,369.413,173.611,369.108,173.582,368.805z"/>
						<path d="M160.839,371.03c0,0.634-0.674,1.148-1.505,1.148c-0.831,0-1.505-0.514-1.505-1.148c0-0.634,0.674-1.148,1.505-1.148
							C160.165,369.882,160.839,370.396,160.839,371.03z"/>
						<path style="fill:none;stroke:#000000;stroke-width:0.5;stroke-miterlimit:10;" d="M159.378,370.851
							c-0.029,0.65,0.034,1.302,0.001,1.952c-0.033,0.65-0.171,1.317-0.556,1.842c-0.482,0.657-1.192,0.867-1.915,0.452"/>
						<path style="fill:none;stroke:#000000;stroke-width:0.5;stroke-miterlimit:10;" d="M159.311,370.851
							c0.029,0.65-0.034,1.302-0.001,1.952c0.033,0.65,0.171,1.317,0.556,1.842c0.495,0.674,1.628,1.081,2.365,0.518"/>
						<path style="fill:none;stroke:#000000;stroke-width:0.5;stroke-miterlimit:10;" d="M155.59,369.561
							c-2.001,0.81-4.365,0.531-5.292-0.565"/>
						<g>
							<defs>
								<path id="SVGID_1_" d="M173.582,368.805l-0.237-12.669l-6.163,3.856c-2.173-1.151-4.754-1.82-7.525-1.82
									c-2.777,0-5.363,0.672-7.539,1.827l-5.579-4.129l-0.382,6.193l-0.473,7.658c0,6.378,6.541,9.838,14.258,9.838
									c7.717,0,13.688-3.46,13.688-9.838C173.63,369.413,173.611,369.108,173.582,368.805z"/>
							</defs>
							<clipPath id="SVGID_00000064353060156269199060000012521397995008312489_">
								<use xlink:href="#SVGID_1_"  style="overflow:visible;"/>
							</clipPath>
							<path style="clip-path:url(#SVGID_00000064353060156269199060000012521397995008312489_);" d="M161.083,356.825
								c-0.103-0.066-0.207-0.122-0.308-0.165c-0.807-0.344-4.098,0.642-3.303,1.923c0.119,0.191,0.353,0.318,0.391,0.539
								c0.02,0.114-0.019,0.228-0.055,0.337c-0.138,0.416-0.249,0.881-0.071,1.281c0.207,0.465,0.779,0.699,1.278,0.604
								c0.5-0.095,0.916-0.463,1.17-0.904c0.204-0.353,0.327-0.766,0.63-1.038c0.257-0.231,0.613-0.33,0.864-0.568
								C162.387,358.165,161.765,357.265,161.083,356.825z"/>
							<path style="clip-path:url(#SVGID_00000064353060156269199060000012521397995008312489_);" d="M173.876,355.345
								c-0.214-0.122-0.435-0.202-0.624-0.219c-0.711-0.067-1.41,0.283-1.927,0.776c-0.516,0.493-0.88,1.121-1.236,1.74
								c-0.228,0.395-0.458,0.797-0.563,1.241c-0.196,0.828,0.088,1.736,0.669,2.357c0.581,0.621,1.431,0.962,2.281,0.991
								c0.326,0.011,0.678-0.031,0.924-0.245c0.194-0.169,0.293-0.42,0.375-0.664c0.245-0.732,0.392-1.497,0.438-2.268
								c0.025-0.422,0.019-0.851,0.086-1.27c0.064-0.406,0.435-0.86,0.472-1.206C174.819,356.119,174.365,355.623,173.876,355.345z"
								/>
						</g>
						<path style="fill:none;stroke:#000000;stroke-width:0.5;stroke-miterlimit:10;" d="M164.23,369.423
							c1.957,0.912,4.332,0.753,5.314-0.293"/>
					</g>
					<path style="fill:#EDBF34;" d="M206.719,372.993c0.237,4.022-2.416,7.637-5.521,9.176c-2.84,1.408-6.184,1.432-9.279,1.73
						c-3.899,0.376-7.798,0.755-11.697,1.132c-3.068,0.297-6.291,0.649-8.812,2.423c-2.521,1.774-3.965,5.48-2.243,8.036
						c1.094,1.625,3.163,2.363,5.122,2.381c3.734,0.034,7.456-1.262,11.048-2.061c3.858-0.858,7.592-1.394,11.529-1.807"/>
					<path style="fill:none;stroke:#000000;stroke-width:0.5;stroke-miterlimit:10;" d="M166.354,394.634
						c0.572-1.621,1.14-3.43,0.463-5.01c-0.562-1.31-1.87-2.147-3.198-2.664c-1.328-0.517-2.747-0.8-4.026-1.43
						c-1.279-0.63-2.453-1.72-2.663-3.13"/>
					<path style="fill:#EDBF34;" d="M166.937,380.041c0.514,1.9,0.246,3.83-0.351,5.653c-0.566,1.728-1.036,3.318-2.399,4.622
						c-1.073,1.027-2.473,1.696-3.421,2.839c-0.487,0.587-0.847,1.328-0.787,2.089c0.077,0.971,0.847,1.793,1.755,2.147
						s1.927,0.308,2.881,0.111c2.9-0.599,5.474-2.613,6.752-5.285"/>
					<g>
						<defs>
							<path id="SVGID_00000080176426454894059670000015734059077412052903_" d="M206.719,372.993
								c0.237,4.022-2.416,7.637-5.521,9.176c-2.84,1.408-6.184,1.432-9.279,1.73c-3.899,0.376-7.798,0.755-11.697,1.132
								c-3.068,0.297-6.291,0.649-8.812,2.423c-2.521,1.774-3.965,5.48-2.243,8.036c1.094,1.625,3.163,2.363,5.122,2.381
								c3.734,0.034,7.456-1.262,11.048-2.061c3.858-0.858,7.592-1.394,11.529-1.807"/>
						</defs>
						<clipPath id="SVGID_00000161613202780393361290000000779787988675639737_">
							<use xlink:href="#SVGID_00000080176426454894059670000015734059077412052903_"  style="overflow:visible;"/>
						</clipPath>
						<path style="clip-path:url(#SVGID_00000161613202780393361290000000779787988675639737_);" d="M170.117,390.31
							c-0.486-0.48-1.062-0.819-1.745-0.865c-2.026-0.139-3.083,1.832-3.15,3.562c-0.07,1.814,0.542,3.732,1.738,5.11
							c1.535,1.769,3.272,1.403,5.301,1.034c1.269-0.231,2.505-0.819,3.201-1.952c0.399-0.651,0.51-1.54,0.063-2.158
							c-0.711-0.983-2.301-0.763-3.232-1.542c-0.398-0.333-0.633-0.815-0.868-1.278C171.082,391.546,170.654,390.841,170.117,390.31
							z"/>
						<path style="clip-path:url(#SVGID_00000161613202780393361290000000779787988675639737_);" d="M193.026,390.837
							c-0.019-0.044-0.038-0.088-0.058-0.132c-0.472-1.041-1.458-1.92-2.601-1.957c-0.52-0.017-1.038,0.141-1.48,0.415
							c-0.587,0.363-1.043,0.934-1.268,1.587c-0.349,1.013-0.145,2.157-0.514,3.163c-0.534,1.454-2.134,2.298-2.713,3.735
							c-0.524,1.301,1.206,1.398,2.077,1.647c1.26,0.36,2.643,0.525,3.891,0.023C193.6,398.015,194.279,393.768,193.026,390.837z"/>
					</g>
					<g>
						<defs>
							<path id="SVGID_00000147217512504793548720000017853141487474273711_" d="M152.781,367.366
								c0.797-0.094,1.637-0.062,2.352-0.11c5.061-0.342,10.145,0.206,15.197-0.26c5.114-0.472,10.052-2.08,15.116-2.935
								c4.62-0.78,9.408-0.924,13.955,0.207c4.547,1.131,8.847,3.617,11.629,7.387c3.13,4.242,3.723,10.007,1.432,14.74
								c-2.371,4.898-7.741,6.769-12.857,7.493c-5.179,0.733-10.389,0.574-15.603,0.574c-4.466,0-8.932,0.576-13.398,0.24
								c-6.446-0.486-12.415,1.132-17.414-4.763c-3.544-4.179-5.465-10.39-4.547-16.258c0.269-1.721,0.79-4.478,2.256-5.641
								C151.418,367.626,152.083,367.448,152.781,367.366z"/>
						</defs>
						<clipPath id="SVGID_00000113318196560055364280000015016384026804639118_">
							<use xlink:href="#SVGID_00000147217512504793548720000017853141487474273711_"  style="overflow:visible;"/>
						</clipPath>
						<path style="clip-path:url(#SVGID_00000113318196560055364280000015016384026804639118_);" d="M186.869,368.194
							c0.9,0.07,1.81,0.006,2.691-0.189c2.248-0.497,4.406-1.844,6.679-1.481c0.722,0.116,1.413,0.403,2.142,0.471
							c2.712,0.252,3.115-2.566,1.139-3.916c-0.599-0.409-1.308-0.624-2.012-0.802c-2.249-0.569-4.616-0.808-6.922-0.488
							c-1.758,0.244-3.408,0.457-4.97,1.382c-0.53,0.314-1.043,0.69-1.368,1.213c-0.63,1.012-0.344,2.488,0.617,3.192
							c0.561,0.411,1.273,0.558,1.967,0.614C186.844,368.193,186.856,368.194,186.869,368.194z"/>
					</g>
					<path style="fill:none;stroke:#000000;stroke-width:0.5;stroke-miterlimit:10;" d="M169.168,395.492
						c-1.722-2.557-0.278-6.262,2.243-8.036c2.521-1.774,5.743-2.126,8.812-2.423c6.481-0.627,12.404-1.47,18.611-3.438
						c1.01-0.321,2.032-0.649,2.931-1.211c0.899-0.562,1.676-1.391,1.955-2.414"/>
					<path style="fill:none;stroke:#000000;stroke-width:0.5;stroke-miterlimit:10;" d="M160.116,395.951
						c0.575-0.941,1.37-1.746,2.305-2.332"/>
					<path style="fill:none;stroke:#000000;stroke-width:0.5;stroke-miterlimit:10;" d="M161.152,397.138
						c0.763-0.584,1.526-1.167,2.289-1.751"/>
					<path style="fill:none;stroke:#000000;stroke-width:0.5;stroke-miterlimit:10;" d="M178.002,385.334
						c1.92-1.851,3.462-4.091,4.504-6.546"/>
				</g>
				<path style="fill:none;stroke:#000000;stroke-width:0.5;stroke-miterlimit:10;" d="M160.087,394.104
					c0.75-0.833,1.547-1.624,2.385-2.368c0.779-0.691,1.596-1.344,2.296-2.115c1.758-1.934,2.69-4.595,2.524-7.203"/>
				<path style="fill:none;stroke:#000000;stroke-width:0.5;stroke-miterlimit:10;" d="M173.38,366.872
					c-0.142,2.481-0.327,5.094-1.704,7.162c-1.523,2.287-4.26,3.489-6.965,3.971"/>
			</g>
		</g>
		<path style="fill:none;stroke:#000000;stroke-width:0.5;stroke-miterlimit:10;" d="M147.266,382.245
			c1.336,1.055,2.871,1.857,4.499,2.352"/>
		<g>
			<defs>
				<path id="SVGID_00000050637373725468649960000001538401534093329795_" d="M454.987,258.539
					c18.145,23.003,19.143,58.494,13.085,85.211c-2.517,11.097-6.183,22.118-12.653,31.478
					c-6.507,9.414-15.585,16.767-25.131,23.079c-23.587,15.596-50.857,25.581-78.938,28.903
					c-19.374,2.292-39.421,1.379-57.748-5.307c-18.327-6.686-34.822-19.549-43.516-37.014c-14.003-28.129-4.991-64.143,16.666-86.91
					c10.548-11.089,23.601-19.48,37.006-26.865c11.302-6.227,22.944-11.815,34.668-17.204c20.566-9.454,42.111-18.461,64.745-18.643
					c14.46-0.116,29.454,4.044,41.103,12.784C448.366,251.122,451.921,254.652,454.987,258.539z"/>
			</defs>
			<clipPath id="SVGID_00000078758590236619245250000003855969285787799439_">
				<use xlink:href="#SVGID_00000050637373725468649960000001538401534093329795_"  style="overflow:visible;"/>
			</clipPath>
			<g style="clip-path:url(#SVGID_00000078758590236619245250000003855969285787799439_);">
				<g>
					<g>
						<g>
							
								<line style="fill:none;stroke:#222221;stroke-width:3;stroke-miterlimit:10;" x1="351.517" y1="369.172" x2="342.299" y2="463.834"/>
							
								<line style="fill:none;stroke:#222221;stroke-width:3;stroke-miterlimit:10;" x1="380.143" y1="369.659" x2="396.517" y2="463.348"/>
							<path style="fill:#222221;" d="M380.795,478.942"/>
						</g>
						<path style="fill:#D57E7C;" d="M295.284,378.757c-0.046-0.044-0.092-0.088-0.138-0.132
							c-4.855-4.645-8.343-11.019-8.387-17.738c-0.05-7.725,4.433-14.919,10.296-19.95c6.346-5.445,15.778-10.958,23.58-13.807
							c9.435-3.446,20.17-1.655,29.687-5.441c13.355-5.312,23.954-14.975,33.075-25.85c8.536-10.178,14.818-25.171,28.737-28.672
							c4.738-1.192,9.917-1.038,14.328,1.062c7.275,3.464,11.242,11.428,13.539,19.151c5.132,17.252,4.48,36.171-1.828,53.028
							c-18.406,49.193-79.356,66.659-125.794,48.416C306.187,386.393,300.117,383.329,295.284,378.757z"/>
						<path style="fill:#8CC9DE;" d="M372.514,340.624c-1.149-9.244-10.341-13.934-18.474-15.522
							c-11.099-2.167-21.949-5.631-32.255-10.288c-2.463-1.113-4.91-2.299-7.412-3.32c-1.954-0.797-3.942-1.493-5.998-1.974
							c-15.379-3.598-26.008,5.403-34.741,16.692c-6.104,7.891-11.87,16.042-17.278,24.425
							c-6.294,9.757-12.105,19.833-18.832,29.306c-1.684,2.372-3.39,5.089-5.395,7.415c2.298,3.205,4.824,6.293,7.096,9.496
							c1.556-1.279,3.041-2.69,4.549-4.002c16.018-13.934,32.937-26.832,50.616-38.587c1.236-0.821,2.514-1.654,3.969-1.95
							c1.944-0.395,3.937,0.217,5.822,0.84c8.949,2.955,18.18,5.269,27.462,6.889c8.21,1.433,17.181,2.717,25.442,0.949
							C365.937,359.098,373.701,350.175,372.514,340.624z"/>
						<path style="fill:#8CC9DE;" d="M250.602,437.336c9.877,1.207,19.817,1.892,29.766,2.051
							c3.735-20.991,7.47-41.983,11.205-62.974c19.821,2.592,39.941,2.358,59.839,0.443c7.053-0.679,14.227-1.608,20.626-4.65
							c11.996-5.704,15.825-17.433,12.697-29.924c-0.621-2.478-1.663-4.885-3.312-6.836c-2.523-2.985-6.283-4.688-10.094-5.556
							c-7.561-1.723-14.408,0.655-21.943,0.788c-9.738,0.172-19.438,1.228-29.079,2.554c-18.669,2.566-38.036,6.531-52.718,18.344
							c-6.824,5.491-8.723,11.746-10.647,19.962C251.962,392.811,252.179,415.579,250.602,437.336z"/>
						<path style="fill:#FFFFFF;stroke:#000000;stroke-width:0.5;stroke-miterlimit:10;" d="M368.649,290.157
							c0.111-0.138,0.221-0.276,0.331-0.415c1.958-2.467,4.475-5.333,7.579-4.799c2.054,0.354,3.594,2.24,4.082,4.266
							c0.487,2.027,0.102,4.162-0.484,6.162c-1.945,6.641-6.714,11.241-11.168,16.323c-4.627,5.279-10.881,10.889-18.253,11.34
							c-3.715,0.227-8.206-1.258-8.973-4.9c-0.419-1.988,0.462-4.065,1.797-5.596c1.335-1.531,3.086-2.625,4.774-3.755
							C355.998,303.653,362.874,297.348,368.649,290.157z"/>
						<path style="fill:#4764A8;" d="M394.763,353.779c6.814-9.828,12.936-20.173,19.028-30.476
							c3.007-5.085,6.683-11.098,6.794-17.167c0.054-2.945-1.442-7.767-3.617-9.973c-2.934-2.975-8.192-2.499-11.706-4.535
							c-7.419-4.299-13.156-10.363-22.407-10.12c-4.542,0.12-8.818,1.863-12.466,4.51c-3.581,2.598-6.359,6.042-9.116,9.458
							c-0.987,1.223-1.258,1.196-0.595,2.457c0.336,0.639,0.98,1.393,1.418,1.98c1.202,1.613,2.79,3.052,4.46,4.172
							c0.27,0.181,0.578,0.41,0.576,0.735c-0.001,0.204-0.13,0.383-0.253,0.546c-3.349,4.436-6.727,8.486-11.454,11.49
							c-1.208,0.768-9.628,7.034-10.943,4.928c4.014,6.425,8.155,12.77,12.419,19.031c7.312,10.735,15.052,21.296,24.572,30.133
							C386.254,365.498,390.636,359.733,394.763,353.779z"/>
						<path style="fill:#FFFFFF;stroke:#222221;stroke-width:0.5;stroke-miterlimit:10;" d="M354.123,331.357l-40.552-18.835
							c-0.528-0.245-0.389-1.032,0.192-1.081l28.149-2.379l42.492,19.736L354.123,331.357z"/>
						<polygon style="fill:#FFFFFF;stroke:#222221;stroke-width:0.5;stroke-miterlimit:10;" points="353.749,327.498 
							331.785,317.297 347.1,316.699 369.064,326.9 						"/>
						<path style="fill:#FFFFFF;stroke:#222221;stroke-width:0.5;stroke-miterlimit:10;" d="M401.555,320.279
							c-1.754,2.217-3.507,4.434-5.261,6.651c-0.804,1.016-8.56-0.562-9.898-0.763c-3.372-0.509-6.7-1.285-9.957-2.295
							c-6.518-2.021-12.195-4.36-18.505-7.099c-4.162-1.806-8.635-3.165-13.166-2.934c-2.17,0.111-4.677,0.885-5.371,2.944
							c-0.665,1.973,0.781,4.118,2.601,5.13c1.934,1.076,4.397,0.871,6.262,1.893c1.535,0.842,2.793,2.408,4.429,3.302
							c13.883,7.583,24.668,21.449,41.062,23.588c3.956,0.516,8.146,0.13,11.617-1.838c2.808-1.592,4.964-4.097,7.061-6.551
							c6.825-7.99,15.764-18.638,13.16-30.039c-0.321-1.406-0.918-2.805-2.005-3.754c-1.281-1.117-3.079-1.464-4.777-1.39
							c-6.59,0.288-11.522,5.913-15.615,11.086C402.646,318.9,402.1,319.589,401.555,320.279z"/>
						<path d="M311.685,311.179l-2.238-28.511l44.039,20.064l0.637,28.625l-41.5-18.841
							C312.09,312.275,311.731,311.762,311.685,311.179z"/>
						<g>
							<defs>
								<path id="SVGID_00000000906011088791077820000006724441978443367302_" d="M316.268,313.544
									c-0.599-1.763-0.233-4.045,0.442-5.627c0.218-0.511,0.497-1.014,0.93-1.364c0.701-0.566,1.675-0.632,2.575-0.594
									c0.832,0.035,1.66,0.139,2.475,0.309c0.464,0.097,0.93,0.218,1.337,0.461c1.799,1.072,2.497,3.565,2.721,5.492
									c0.249,2.145,0.173,4.42,1.175,6.395c0.318,0.626,0.748,1.255,1.406,1.5c-1.796-0.494-3.665-0.624-5.491-0.965
									c-2.642-0.493-4.927-2.254-6.729-4.169C316.726,314.575,316.452,314.084,316.268,313.544z"/>
							</defs>
							<clipPath id="SVGID_00000169527938386636201840000012730125039199069592_">
								<use xlink:href="#SVGID_00000000906011088791077820000006724441978443367302_"  style="overflow:visible;"/>
							</clipPath>
						</g>
						<g>
							<path style="fill:#FFFFFF;stroke:#000000;stroke-width:0.5;stroke-miterlimit:10;" d="M330.34,319.439
								c-1.807-2.211-2.215-5.114-2.615-7.855c-0.33-2.259-0.659-4.518-0.989-6.777c-0.097-0.667-0.208-1.367-0.618-1.902
								c-0.389-0.508-1.137-0.776-1.686-0.473c-0.116-0.141-0.232-0.282-0.363-0.404c-0.463-0.429-1-0.857-1.672-0.721
								c-0.571,0.116-1.071,0.622-1.263,1.184c-0.052-0.074-0.099-0.153-0.17-0.214c-0.567-0.481-1.518-0.191-2.036,0.251
								c-0.422,0.36-0.47,0.919-0.491,1.474c0.017-0.481-1.233-0.379-1.452-0.241c-0.459,0.287-0.583,0.87-0.634,1.373
								c-0.242,2.382-0.138,4.79,0.152,7.166c0.218,1.789,0.416,3.298,1.462,4.82c0.549,0.799,1.244,1.497,2.042,2.047
								c0.893,0.616,1.622,0.725,2.631,0.948c0.874,0.193,1.728,0.47,2.572,0.77c2.055,0.732,4.242,1.624,6.348,1.056
								c0.267-0.072,0.577-0.23,0.582-0.507c0.005-0.288-0.316-0.449-0.567-0.591c-0.58-0.328-0.759-0.839-1.157-1.312
								C330.391,319.501,330.365,319.47,330.34,319.439z"/>
							<g>
								<path style="fill:#FFFFFF;stroke:#000000;stroke-width:0.5;stroke-miterlimit:10;" d="M324.444,302.325
									c0.022,2.179,0.146,4.357,0.373,6.525c0.209,1.996,0.171,4.113,0.887,6.01"/>
								<path style="fill:#FFFFFF;stroke:#000000;stroke-width:0.5;stroke-miterlimit:10;" d="M321.407,301.969
									c-0.173,3.454,0.579,8.956,1.242,12.35"/>
								<path style="fill:#FFFFFF;stroke:#000000;stroke-width:0.5;stroke-miterlimit:10;" d="M318.533,301.386
									c0.102,0.419,0.063,0.858,0.033,1.289c-0.228,3.294,0.16,7.782,1.034,10.967"/>
							</g>
						</g>
						<path style="fill:#4764A8;" d="M406.153,291.666c4.417-0.556,8.929-1.109,13.292-0.22
							c10.965,2.234,14.268,14.466,12.626,24.27c-1.483,8.861-6.168,16.525-11.584,23.528c-8.091-5.381-15.618-12.06-23.709-17.441
							c-0.479-0.318,2.474-2.63,5.723-10.083"/>
						<g>
							<defs>
								<path id="SVGID_00000140708016735271537310000018152188797412843430_" d="M403.334,293.956
									c-1.491-0.428-2.911-1.074-4.173-1.973c-1.468-1.046-2.7-2.448-3.496-4.068c-0.425-0.865-0.481-3.16-1.623-3.338
									c1.17,0.716,3.021,0.951,4.337,0.561c1.232-0.365,1.996-1.687,2.616-2.716c0.8-1.327,1.644-2.583,2.162-4.065
									c0.028-0.08,0.056-0.163,0.052-0.248c-0.017-0.354-0.907-0.754-1.184-0.91c-0.442-0.249-0.927-0.454-1.336-0.755
									c-1.088-0.799-2.092-1.737-2.743-2.935c-0.782-1.439-0.988-3.114-1.119-4.746c-0.569-7.14,1.694-14.426,7.079-19.396
									c0.432-0.398,0.895-0.787,1.451-0.977c2.038-0.694,3.77,1.247,5.61,1.704c1.79,0.445,3.45,0.884,5.223,1.534
									c2.124,0.779,4.305,1.399,6.404,2.245c1.25,0.504,4.159,1.369,4.602,2.85c0.489,1.635-0.981,3.364-1.499,4.796
									c-0.607,1.678-1.089,3.349-1.785,5.028c-1.512,3.647-2.728,7.408-3.85,11.191c-0.83,2.799-1.734,5.596-2.165,8.492
									c-0.174,1.167-0.359,2.416,0.052,3.555c0.179,0.495,0.496,0.943,0.9,1.28c0.181,0.151,1.094,0.799,1.345,0.613
									c-0.921,0.679-1.946,1.217-3.029,1.589c-0.815,0.279-1.658,0.465-2.5,0.649
									C410.832,294.756,407.161,295.055,403.334,293.956z"/>
							</defs>
							<use xlink:href="#SVGID_00000140708016735271537310000018152188797412843430_"  style="overflow:visible;fill:#FFFFFF;"/>
							<clipPath id="SVGID_00000047762056821116717400000011506731470011857561_">
								<use xlink:href="#SVGID_00000140708016735271537310000018152188797412843430_"  style="overflow:visible;"/>
							</clipPath>
							
								<use xlink:href="#SVGID_00000140708016735271537310000018152188797412843430_"  style="overflow:visible;fill:none;stroke:#222221;stroke-width:0.5;stroke-miterlimit:10;"/>
						</g>
						<path style="fill:#222221;" d="M421.982,268.689c0.995-0.097,1.999-0.511,2.44-1.463c1.235,3.704,6.952,2.081,7.159-1.468
							c0.093-1.586-1.115-3.189-2.69-3.395c1.053-0.385,2.128-0.797,2.964-1.544c0.836-0.747,1.392-1.913,1.111-2.998
							c-0.424-1.635-2.457-2.296-4.135-2.098c1.558-0.786,2.639-3.445,1.742-5.008c-0.605-1.053-1.73-1.455-2.883-1.501
							c-0.434-0.017-2.655,0.104-2.855,0.54c0.896-1.951,0.057-4.524-1.818-5.571c-1.875-1.047-4.506-0.412-5.696,1.375
							c0.138-2.448-1.399-4.983-3.738-5.717c-2.061-0.646-6.423,0.896-5.825,3.669c-1.306-0.637-2.595-1.31-4.095-1.308
							c-1.476,0.003-3.031,0.78-3.567,2.155c-0.536,1.376,0.365,3.229,1.837,3.34c-1.058,0.089-2.139,0.273-3.047,0.822
							c-0.908,0.55-1.616,1.534-1.577,2.595c0.023,0.633,0.297,1.184,0.718,1.635c0.674,0.722,1.726,1.187,2.732,1.315
							c1.295,0.165,2.635-0.035,3.826-0.573c-0.946,1.141-0.644,2.994,0.427,4.02c1.071,1.025,2.696,1.305,4.156,1.045
							c1.46-0.261,2.789-0.993,4.046-1.779c-1.079,1.176-0.418,3.255,0.955,4.067c1.377,0.814,3.108,0.644,4.578,0.199
							c-1.56,0.473-1.043,4.514-0.761,5.589c0.193,0.735,0.77,1.332,1.452,1.667c0.682,0.335,1.461,0.432,2.221,0.408
							C421.766,268.707,421.874,268.7,421.982,268.689z"/>
						<path d="M403.23,277.854c-0.054,0.137-0.108,0.275-0.165,0.411c-0.068,0.163-0.137,0.325-0.206,0.488
							c-0.004,0.01-0.009,0.02-0.013,0.03c-0.064,0.343-0.187,0.663-0.353,0.965c-0.027,0.078-0.058,0.155-0.085,0.234
							c-0.112,0.332-0.258,0.648-0.412,0.96c1.725,0.119,3.947,0.133,5.513-1.479c0.421-0.433,0.922-0.913,1.189-1.438
							C406.966,278.486,405.034,278.395,403.23,277.854z"/>
						<path style="fill:none;stroke:#222221;stroke-width:0.5;stroke-miterlimit:10;" d="M398.893,268.223
							c0.001,1.236,0.853,2.427,2.022,2.828c1.17,0.401,2.572-0.018,3.331-0.994"/>
						<path style="fill:#FFFFFF;stroke:#222221;stroke-width:0.5;stroke-miterlimit:10;" d="M416.707,266.435
							c1.114-0.907,2.537-1.487,3.971-1.397c1.433,0.091,2.847,0.925,3.439,2.234c0.526,1.163,0.346,2.59-0.369,3.648
							c-0.715,1.058-1.92,1.743-3.184,1.924c-1.058,0.152-2.227-0.069-2.973-0.833"/>
						<path style="fill:#FFFFFF;stroke:#222221;stroke-width:0.5;stroke-miterlimit:10;" d="M421.488,266.589
							c-0.725-0.099-1.466,0.107-2.114,0.448c-0.648,0.341-1.217,0.811-1.781,1.278"/>
						<path style="fill:#7696EA;stroke:#000000;stroke-width:0.5;stroke-miterlimit:10;" d="M366.581,306.041
							c1.338-1.612,2.676-3.224,4.013-4.835c0.671-0.808,1.343-1.618,1.915-2.499"/>
					</g>
				</g>
				<path style="fill:none;stroke:#222221;stroke-width:0.5;stroke-miterlimit:10;" d="M344.183,341.697
					c-18.677-3.547-30.849-4.731-49.527-8.278c-8.314-1.579-17.837,1.546-23.57,7.77c-5.733,6.225-8.757,14.422-11.365,22.472
					c-2.085,6.434-3.993,12.925-5.722,19.464"/>
				<path style="fill:none;stroke:#222221;stroke-width:0.5;stroke-miterlimit:10;" d="M291.394,377.381
					c-0.704-3.659-1.544-7.292-2.517-10.889"/>
				<path style="fill:none;stroke:#222221;stroke-width:0.5;stroke-miterlimit:10;" d="M399.095,323.521
					c-0.615-0.447-1.229-0.895-1.844-1.342c3.27-4.02,6.54-8.04,9.81-12.061c0.536-0.659,1.105-1.434,0.962-2.271"/>
				<path d="M366.007,302.812c0.034-0.163,0.09-0.322,0.167-0.468c0.228-0.433,0.708-0.948,1.215-1.021
					c0.685-0.099,1.249,0.14,1.495-0.689c0.217-0.73,0.765-1.14,1.563-1.185c0.267-0.015,0.535,0.022,0.801,0.001
					c0.149-0.012,0.504-0.156,0.643-0.085c0.354,0.179-0.22,0.76-0.388,1.003c-0.414,0.598-0.837,1.189-1.282,1.765
					c-0.427,0.552-0.873,1.091-1.346,1.604c-0.129,0.14-1.522,1.413-1.504,1.452c-0.232-0.51-0.832-0.747-1.154-1.206
					C365.982,303.647,365.924,303.216,366.007,302.812z"/>
				<path style="fill:none;stroke:#222221;stroke-width:0.5;stroke-miterlimit:10;" d="M394.201,348.324
					c1.498,0.352,3.047,0.549,4.578,0.393c1.531-0.157,3.047-0.685,4.235-1.662"/>
				<path style="fill:none;stroke:#222221;stroke-width:0.5;stroke-miterlimit:10;" d="M404.251,346.286
					c0.737-0.626,1.387-1.354,1.927-2.156"/>
				<path style="fill:none;stroke:#222221;stroke-width:0.5;stroke-miterlimit:10;" d="M395.616,327.255
					c0.766,0.038,1.534,0.045,2.3,0.022"/>
				<path style="fill:none;stroke:#222221;stroke-width:0.5;stroke-miterlimit:10;" d="M356.483,373.485
					c2.857-0.215,5.692-0.733,8.441-1.541c1.428-0.42,4.866-1.577,6.198-2.241"/>
				<path style="fill:none;stroke:#222221;stroke-width:0.5;stroke-miterlimit:10;" d="M389.141,357.502
					c-1.251,1.439-2.503,2.878-3.754,4.317"/>
				<path style="fill:none;stroke:#222221;stroke-width:0.5;stroke-miterlimit:10;" d="M290.407,365.198
					c0.063,1.064,0.125,2.127,0.188,3.191"/>
				<path style="fill:none;stroke:#222221;stroke-width:0.5;stroke-miterlimit:10;" d="M358.92,371.386
					c1.189-0.187,2.378-0.373,3.567-0.56"/>
				<path style="fill:none;stroke:#222221;stroke-width:0.5;stroke-miterlimit:10;" d="M280.363,339.374
					c-1.341,0.229-2.618,0.827-3.652,1.711"/>
				<path style="fill:none;stroke:#222221;stroke-width:0.5;stroke-miterlimit:10;" d="M293.177,312.781
					c-1.521,0.555-2.985,1.264-4.364,2.112"/>
				<path style="fill:none;stroke:#222221;stroke-width:0.5;stroke-miterlimit:10;" d="M275.446,342.21
					c-0.331,0.468-0.661,0.935-0.992,1.403"/>
			</g>
		</g>
		<g>
			<polygon style="fill:#A8DCA4;" points="190.221,307.434 237.711,305.509 213.182,337.747 201.833,320.61 197.128,326.852 
				196.485,314.169 			"/>
			<g>
				<defs>
					<polygon id="SVGID_00000110462012135643509100000002658111048029050787_" points="190.221,307.434 237.711,305.509 
						215.518,337.824 201.833,320.61 197.128,326.852 196.485,314.169 					"/>
				</defs>
				<clipPath id="SVGID_00000176001000954100380830000015733150970617709727_">
					<use xlink:href="#SVGID_00000110462012135643509100000002658111048029050787_"  style="overflow:visible;"/>
				</clipPath>
				<polygon style="clip-path:url(#SVGID_00000176001000954100380830000015733150970617709727_);" points="230.037,309.448 
					201.833,320.61 198.208,332.932 191.136,326.611 196.485,314.169 				"/>
			</g>
		</g>
		<g>
			<path style="fill:#EDBF34;" d="M364.083,208.06c-6.991-4.648-16.728-4.805-24.833-4.803c-10.816,0.003-33.697,0.529-44.552,1.402
				c-13.831,1.112-23.963,4.514-22.82,22.639c0.158,2.504,0.97,5.044,2.699,6.862c2.813,2.958,7.294,3.404,11.377,3.607
				c-0.787,7.921-0.275,12.996-5.106,19.328c6.902-2.273,8.457-5.92,10.969-12.738c0.753-2.044,1.315-4.139,1.746-6.266
				c15.531,0.572,31.08,0.599,46.623,0.623c7.475,0.012,15.397-0.098,21.742-4.052c6.155-3.837,10.053-13.958,7.149-20.761
				C368.013,211.413,366.268,209.513,364.083,208.06z"/>
			<path style="fill:none;stroke:#222221;stroke-width:0.5;stroke-miterlimit:10;" d="M290.002,226.478
				c4.023,0.864,8.499-1.45,10.119-5.233c0.403-0.94,0.534-2.251-0.337-2.787c-0.932-0.574-2.139,0.323-2.55,1.337
				c-1.038,2.561,0.971,5.672,3.656,6.33c2.684,0.658,5.571-0.731,7.302-2.886c0.948-1.181,1.519-3.121,0.33-4.058
				c-0.891-0.702-2.34-0.262-2.922,0.712c-0.582,0.974-0.42,2.257,0.138,3.244c1.558,2.756,5.607,3.173,8.41,1.702
				c1.339-0.703,2.582-1.908,2.666-3.418c0.084-1.51-1.586-3.023-2.93-2.33c-0.776,0.4-1.141,1.367-1.025,2.232
				c0.116,0.865,0.63,1.631,1.239,2.255c3.034,3.11,8.843,2.74,11.459-0.728c0.55-0.729,0.978-1.613,0.898-2.523
				c-0.08-0.91-0.809-1.801-1.722-1.808c-1.193-0.009-1.942,1.461-1.667,2.622c0.275,1.161,1.204,2.035,2.089,2.834
				c1.696,1.534,3.744,3.178,5.998,2.787c1.879-0.326,3.207-1.974,4.295-3.541c0.604-0.87,1.209-1.804,1.298-2.859
				c0.089-1.056-0.529-2.248-1.574-2.426c-1.578-0.269-2.564,1.798-2.344,3.384c0.429,3.087,3.514,5.557,6.62,5.299
				s5.742-3.202,5.656-6.317c-0.026-0.943-0.436-2.048-1.36-2.237c-1.389-0.285-2.122,1.62-2.065,3.036
				c0.07,1.763,0.524,3.626,1.82,4.823c1.302,1.202,3.24,1.503,4.986,1.208c1.747-0.295,3.356-1.11,4.935-1.914"/>
		</g>
		<g>
			<path style="fill:#EDBF34;" d="M201.448,189.653c-5.682-6.364-18.312-6.498-26.044-6.639c-10.373-0.19-23.896-0.646-35.46,2.295
				c-5.39,1.371-10.354,3.48-14.376,6.697c-4.132,3.307-6.899,8.753-5.763,13.922c1.017,4.628,4.934,8.188,9.3,10.029
				c4.366,1.841,9.184,2.241,13.908,2.61c14.077,1.099,28.414,2.083,42.235-0.511c0.043,1.859,0.126,3.724,0.565,5.528
				c1.472,6.045,7.27,10.756,13.488,10.961c-4.401-2.049-7.041-6.81-7.82-11.602c-0.336-2.07-0.369-4.158-0.246-6.249
				c4.262-1.194,8.473-3.014,11.211-6.441C206.828,204.77,206.077,194.837,201.448,189.653z"/>
			<path style="fill:none;stroke:#222221;stroke-width:0.5;stroke-miterlimit:10;" d="M134.935,207.932
				c1.38-4.13,4.529-7.636,8.488-9.448c1.329-0.608,2.818-1.037,4.247-0.731c2.764,0.592,4.279,3.692,4.447,6.514
				c0.061,1.018-0.012,2.088-0.529,2.967c-0.517,0.879-1.578,1.502-2.564,1.238c-1.022-0.273-1.632-1.416-1.581-2.472
				c0.051-1.057,0.622-2.02,1.292-2.839c1.463-1.79,3.456-3.107,5.611-3.943c2.834-1.099,6.259-1.313,8.737,0.447
				c2.478,1.76,3.204,5.922,0.838,7.831c-0.481,0.388-1.103,0.67-1.709,0.549c-1.428-0.285-1.558-2.334-0.979-3.67
				c1.374-3.168,4.684-5.212,8.096-5.745c1.599-0.25,3.355-0.176,4.669,0.769c2.48,1.783,2.148,5.686,0.589,8.312
				c-0.29,0.489-0.647,0.987-1.18,1.186c-1.002,0.374-2.115-0.584-2.258-1.644c-0.143-1.06,0.403-2.09,1.048-2.944
				c1.727-2.287,4.32-3.904,7.133-4.447c2.227-0.43,4.919,0.01,6.062,1.969c1.14,1.953,0.224,4.478-1.108,6.305
				c-0.22,0.301-0.509,0.624-0.881,0.61c-0.335-0.013-0.59-0.295-0.8-0.556c-2.407-2.99-0.517-5.03,2.1-7.178
				c1.73-1.421,4.193-1.895,6.327-1.218"/>
		</g>
		<path style="fill:none;stroke:#000000;stroke-width:0.5;stroke-miterlimit:10;" d="M154.49,242.758
			c-4.769,6.805-9.722,13.481-14.851,20.019"/>
		<path style="fill:none;stroke:#000000;stroke-width:0.5;stroke-miterlimit:10;" d="M146.88,259.851
			c-2.422,3.149-4.845,6.298-7.267,9.447"/>
		<polyline style="fill:none;stroke:#000000;stroke-width:0.5;stroke-miterlimit:10;" points="409.95,401.106 415.037,393.839 
			420.306,400.379 426.423,393.293 431.751,400.379 437.565,393.112 443.379,400.016 449.374,392.93 		"/>
		<path style="fill:none;stroke:#000000;stroke-width:0.5;stroke-miterlimit:10;" d="M78.815,182.311
			c-2.013-1.599-5.683-0.551-6.244,2.224c-0.095,0.473-0.026,0.961,0.044,1.438c0.241,1.641,0.764,3.362-0.59,4.688
			c-0.958,0.938-2.465,0.954-3.803,0.862c-1.494-0.103-4.03-0.28-4.697,1.44c-0.461,1.191,0.095,2.504,0.525,3.706
			c0.431,1.203,0.681,2.706-0.208,3.623c-1.178,1.216-3.195,0.403-4.886,0.497c-1.668,0.093-3.226,1.266-3.776,2.844
			c-0.55,1.578-0.058,3.465,1.192,4.575"/>
		<g>
			<path style="fill:none;stroke:#000000;stroke-width:0.5;stroke-miterlimit:10;" d="M153.962,125.52
				c0-2.998,2.431-5.429,5.429-5.429s5.429,2.431,5.429,5.429"/>
			<path d="M169.725,112.733c0,1.355-1.098,2.453-2.453,2.453s-2.453-1.098-2.453-2.453s1.098-2.453,2.453-2.453
				S169.725,111.379,169.725,112.733z"/>
		</g>
		<g>
			<path style="fill:none;stroke:#000000;stroke-width:0.5;stroke-miterlimit:10;" d="M233.957,402.691
				c-2.422,3.149-4.845,6.298-7.267,9.447"/>
			<circle cx="224.51" cy="405.598" r="3.27"/>
		</g>
		<path d="M82.118,193.984c-1.053,1.278-2.942,1.46-4.22,0.407c-1.278-1.053-1.46-2.942-0.407-4.22
			c1.053-1.278,2.942-1.46,4.22-0.407C82.989,190.817,83.171,192.706,82.118,193.984z"/>
		<g>
			<path d="M349.776,264.387c-1.077,1.244-2.958,1.379-4.202,0.302c-1.244-1.077-1.379-2.958-0.302-4.202
				c1.077-1.244,2.958-1.379,4.202-0.302C350.718,261.262,350.853,263.143,349.776,264.387z"/>
			<path style="fill:none;stroke:#000000;stroke-width:0.5;stroke-miterlimit:10;" d="M344.93,269.972
				c-2.533,2.925-6.958,3.243-9.883,0.71c-2.925-2.533-3.243-6.958-0.71-9.883"/>
		</g>
		<path d="M441.199,368.404c1.605,0,2.907,1.301,2.907,2.907c0,1.605-1.302,2.907-2.907,2.907"/>
	</g>
	<path d="M271.873,269.122c-1.088,0.196-1.717,1.3-2.322,2.226c-0.822,1.26-2.001,2.457-3.499,2.603
		c-0.48,0.047-1.014-0.005-1.394,0.292c-0.467,0.364-0.468,1.058-0.712,1.597c-0.63,1.39-2.66,1.464-3.655,2.621
		c-0.112,0.13-0.214,0.289-0.202,0.461c0.016,0.217,0.205,0.377,0.386,0.498c0.456,0.304,0.96,0.529,1.46,0.752
		c0.953,0.425,1.905,0.85,2.858,1.276c1.326,0.592,2.667,1.188,4.093,1.461c1.146,0.219,2.517,0.139,3.223-0.79
		c0.243-0.32,0.378-0.707,0.509-1.087c0.548-1.585,1.099-3.186,1.302-4.851c0.093-0.76,0.114-1.539,0.361-2.264
		c0.158-0.465,0.405-0.895,0.569-1.357c0.276-0.781,0.465-2.461-0.189-3.137C274.202,268.949,272.564,268.997,271.873,269.122z"/>
</g>
</svg>
